# xmcd
#
# Track frame offsets:
#	150
#	33632
#	46965
#	60795
#	75035
#	88257
#	106677
#	122310
#	136147
#	149615
#	169010
#	183785
#	197327
#	210872
#	222410
#	235465
#
# Disc length: 3300 seconds
#
# Revision: 3
# Processed by: cddbd v1.4PL0 Copyright (c) Steve Scherf et al.
# Submitted via: audiograbber 1.81.03
#
DISCID=c70ce210
DTITLE=Various Artist - Blues Classics - CD 3
DYEAR=1994
DGENRE=Blues
TTITLE0=Buddy Guy - Stone Crazy
TTITLE1=John Lee Hooker - One Bourbon, One Scotch, One Beer
TTITLE2=Howlin' Wolf - Smokestack Lightnin'
TTITLE3=Sonny Boy Williamson - Help Me
TTITLE4=Little Walter - Mean Old World
TTITLE5=Charles Brown - Driftin' Blues
TTITLE6=Eddie 'Cleanhead' Vinson - Cleanhead Blues
TTITLE7=Etta James - At Last
TTITLE8=Little Milton - Who's Cheating Who
TTITLE9=Sonny Boy Williamson - Nine Below Zero
TTITLE10=Pee Wee Crayton - Blues In The Ghetto
TTITLE11=Koko Taylor - Wang Dang Doodle
TTITLE12=Etta James - All I Could Do Was Cry
TTITLE13=Little Walter - My Babe
TTITLE14=Muddy Waters - Forty Days And Forty Nights
TTITLE15=Howlin' Wolf - How Many More Years
EXTD=
EXTT0=
EXTT1=
EXTT2=
EXTT3=
EXTT4=
EXTT5=
EXTT6=
EXTT7=
EXTT8=
EXTT9=
EXTT10=
EXTT11=
EXTT12=
EXTT13=
EXTT14=
EXTT15=
PLAYORDER=
